<?xml version="1.0" encoding="utf-8"?>
<!-- Generator: Adobe Illustrator 26.3.1, SVG Export Plug-In . SVG Version: 6.00 Build 0)  -->
<svg version="1.1" id="visual" xmlns="http://www.w3.org/2000/svg" xmlns:xlink="http://www.w3.org/1999/xlink" x="0px" y="0px"
	 viewBox="0 0 900 675" style="enable-background:new 0 0 900 675;" xml:space="preserve">
<style type="text/css">
	.st0{fill:#FFFFFF;}
	.st1{fill:#FFE097;}
	.st2{fill:#FFC29A;}
	.st3{fill:#FFAAAB;}
</style>
<rect class="st0" width="900" height="675"/>
<path class="st1" d="M0,581.8L0,581.8c23.2,5.6,86-8.5,128.8,0.5c42.9,9,85.5,1.4,128.4-6c42.8-7.3,85.8-14.3,128.6-16
	c42.9-1.6,85.5,2,128.4,11c42.8,9,85.8,23.4,128.6,21.2c42.9-2.2,85.5-20.8,128.4-19.3c42.8,1.5,85.8,23.1,107.3,34L900,618v58
	h-21.5c-21.5,0-64.5,0-107.3,0c-42.9,0-85.5,0-128.4,0c-42.8,0-85.8,0-128.6,0c-42.9,0-85.5,0-128.4,0c-42.8,0-85.8,0-128.6,0
	c-42.9,0-85.5,0-128.4,0c-42.8,0-85.8,0-107.3,0H0V581.8z"/>
<path class="st2" d="M0,591l21.5-2.8c21.5-2.9,64.5-8.5,107.3-10.7c42.9-2.2,85.5-0.8,128.4,4.3C300,587,343,596,385.8,593.2
	c42.9-2.9,85.5-17.5,128.4-17.2c42.8,0.3,85.8,15.7,128.6,15.3c42.9-0.3,85.5-16.3,128.4-20.1c42.8-3.9,85.8,4.5,107.3,8.6L900,584
	v92h-21.5c-21.5,0-64.5,0-107.3,0c-42.9,0-85.5,0-128.4,0c-42.8,0-85.8,0-128.6,0c-42.9,0-85.5,0-128.4,0c-42.8,0-85.8,0-128.6,0
	c-42.9,0-85.5,0-128.4,0c-42.8,0-85.8,0-107.3,0H0V591z"/>
<path class="st3" d="M0,604l21.5,5.7c21.5,5.6,64.5,17,107.3,21c42.9,4,85.5,0.6,128.4-4.4c42.8-5,85.8-11.6,128.6-17.3
	c42.9-5.7,85.5-10.3,128.4-11.3c42.8-1,85.8,1.6,128.6,2.5c42.9,0.8,85.5-0.2,128.4,0c42.8,0.1,85.8,1.5,107.3,2.1L900,603v73h-21.5
	c-21.5,0-64.5,0-107.3,0c-42.9,0-85.5,0-128.4,0c-42.8,0-85.8,0-128.6,0c-42.9,0-85.5,0-128.4,0c-42.8,0-85.8,0-128.6,0
	c-42.9,0-85.5,0-128.4,0c-42.8,0-85.8,0-107.3,0H0V604z"/>
</svg>
