<svg width="272" height="98" viewBox="0 0 272 98" fill="none" xmlns="http://www.w3.org/2000/svg">
<circle cx="261.5" cy="67.5" r="6.5" fill="#009DD0" fill-opacity="0.5" stroke="white" stroke-width="2"/>
<circle cx="257" cy="15" r="13.5" fill="#009DD0" fill-opacity="0.5" stroke="white" stroke-width="3"/>
<circle cx="237" cy="37" r="28.5" fill="#009DD0" fill-opacity="0.5" stroke="white" stroke-width="3"/>
<circle cx="151.5" cy="75.5" r="6.5" fill="#009DD0" fill-opacity="0.5" stroke="white" stroke-width="2"/>
<circle cx="98" cy="22" r="13.5" fill="#009DD0" fill-opacity="0.5" stroke="white" stroke-width="3"/>
<circle cx="30" cy="68" r="28.5" fill="#009DD0" fill-opacity="0.5" stroke="white" stroke-width="3"/>
<g filter="url(#filter0_d_11_183)">
<path d="M15.88 56.736C15.88 63.648 20.616 69.28 29 69.28C36.232 69.28 41.992 63.648 41.992 56.864C41.992 50.848 38.792 47.008 31.944 44.96C28.68 44 25.16 43.488 25.16 40.608C25.16 38.112 27.144 36.896 29.192 36.896C31.816 36.896 33.16 38.688 33.16 40.864H41.992C41.48 33.76 37.448 28.32 28.936 28.32C21.704 28.32 15.88 33.952 15.88 40.736C15.88 47.328 19.464 50.336 25.928 52.64C29.064 53.728 32.84 54.56 32.84 57.44C32.84 59.424 31.368 60.768 29 60.768C26.824 60.768 25.032 58.976 25.032 56.736H15.88ZM48.322 55.072C48.322 63.904 54.594 69.28 63.362 69.28C71.81 69.28 78.594 64.16 78.594 55.072V29.6H69.186V53.664C69.186 58.784 66.946 60.576 63.362 60.576C60.098 60.576 57.666 58.784 57.666 53.664V29.6H48.322V55.072ZM84.7595 68H98.1355C110.424 68 118.232 58.976 118.232 48.736C118.232 37.92 109.464 29.6 98.1355 29.6H84.7595V68ZM94.1675 59.424V38.112H97.9435C104.536 38.112 108.568 42.784 108.568 48.736C108.568 55.2 103.96 59.424 97.9435 59.424H94.1675ZM124.443 56.736C124.443 63.648 129.179 69.28 137.562 69.28C144.795 69.28 150.555 63.648 150.555 56.864C150.555 50.848 147.355 47.008 140.507 44.96C137.243 44 133.723 43.488 133.723 40.608C133.723 38.112 135.707 36.896 137.755 36.896C140.378 36.896 141.723 38.688 141.723 40.864H150.555C150.043 33.76 146.011 28.32 137.499 28.32C130.267 28.32 124.443 33.952 124.443 40.736C124.443 47.328 128.027 50.336 134.491 52.64C137.627 53.728 141.403 54.56 141.403 57.44C141.403 59.424 139.931 60.768 137.562 60.768C135.387 60.768 133.595 58.976 133.595 56.736H124.443ZM173.197 55.072C173.197 63.904 179.469 69.28 188.237 69.28C196.685 69.28 203.469 64.16 203.469 55.072V29.6H194.061V53.664C194.061 58.784 191.821 60.576 188.237 60.576C184.973 60.576 182.541 58.784 182.541 53.664V29.6H173.197V55.072ZM209.635 68H218.979V54.176H225.699C232.803 54.176 238.179 49.056 238.179 41.888C238.179 35.424 233.571 29.6 225.699 29.6H209.635V68ZM218.979 46.112V37.6H224.803C227.299 37.6 228.579 39.52 228.579 41.632C228.579 43.872 227.235 46.112 224.803 46.112H218.979Z" fill="url(#paint0_linear_11_183)"/>
<path d="M15.88 56.736V53.736H12.88V56.736H15.88ZM31.944 44.96L32.8036 42.0858L32.7905 42.0819L31.944 44.96ZM33.16 40.864H30.16V43.864H33.16V40.864ZM41.992 40.864V43.864H45.216L44.9842 40.6483L41.992 40.864ZM25.928 52.64L24.9208 55.4659L24.9327 55.4701L24.9447 55.4743L25.928 52.64ZM25.032 56.736H28.032V53.736H25.032V56.736ZM12.88 56.736C12.88 60.8799 14.3074 64.8028 17.1559 67.7024C20.0219 70.6197 24.1086 72.28 29 72.28V66.28C25.5074 66.28 23.0341 65.1243 21.4361 63.4976C19.8206 61.8532 18.88 59.5041 18.88 56.736H12.88ZM29 72.28C37.7796 72.28 44.992 65.412 44.992 56.864H38.992C38.992 61.884 34.6844 66.28 29 66.28V72.28ZM44.992 56.864C44.992 53.2921 44.0267 50.1013 41.8315 47.4925C39.6764 44.9313 36.5723 43.2129 32.8036 42.0858L31.0844 47.8342C34.1637 48.7551 36.0836 49.9807 37.2405 51.3555C38.3573 52.6827 38.992 54.4199 38.992 56.864H44.992ZM32.7905 42.0819C32.3508 41.9526 31.9127 41.8325 31.5051 41.7213C31.0885 41.6076 30.708 41.5043 30.3398 41.3979C29.5897 41.1811 29.03 40.99 28.6086 40.7911C28.182 40.5897 28.0783 40.4627 28.0875 40.474C28.1505 40.5513 28.16 40.6514 28.16 40.608H22.16C22.16 42.0046 22.6095 43.2486 23.4345 44.262C24.2057 45.2093 25.186 45.8103 26.0474 46.2169C27.6157 46.9573 29.8004 47.4566 31.0975 47.8381L32.7905 42.0819ZM28.16 40.608C28.16 40.3894 28.2014 40.2846 28.2183 40.2485C28.2356 40.2116 28.2598 40.1771 28.3091 40.1368C28.4277 40.0396 28.7241 39.896 29.192 39.896V33.896C27.6119 33.896 25.8923 34.3604 24.5069 35.4952C23.0462 36.6918 22.16 38.4779 22.16 40.608H28.16ZM29.192 39.896C29.5046 39.896 29.6901 39.9487 29.7855 39.9876C29.8768 40.0249 29.9238 40.0644 29.9547 40.0978C30.0137 40.1619 30.16 40.3786 30.16 40.864H36.16C36.16 39.1734 35.6343 37.4061 34.3654 36.0302C33.0602 34.6149 31.2273 33.896 29.192 33.896V39.896ZM33.16 43.864H41.992V37.864H33.16V43.864ZM44.9842 40.6483C44.6937 36.6166 43.3824 32.749 40.6388 29.8615C37.8451 26.9214 33.8715 25.32 28.936 25.32V31.32C32.5125 31.32 34.8109 32.4386 36.2892 33.9945C37.8176 35.603 38.7783 38.0074 38.9998 41.0797L44.9842 40.6483ZM28.936 25.32C20.176 25.32 12.88 32.1692 12.88 40.736H18.88C18.88 35.7348 23.232 31.32 28.936 31.32V25.32ZM12.88 40.736C12.88 44.6349 13.9656 47.804 16.2658 50.3202C18.465 52.7258 21.53 54.2573 24.9208 55.4659L26.9352 49.8141C23.862 48.7187 21.903 47.5941 20.6942 46.2718C19.5864 45.06 18.88 43.4291 18.88 40.736H12.88ZM24.9447 55.4743C26.797 56.1169 28.0932 56.4591 29.1615 57.0221C29.6365 57.2724 29.8163 57.4498 29.8652 57.5106C29.8805 57.5296 29.8669 57.5171 29.8526 57.4776C29.8374 57.436 29.84 57.4156 29.84 57.44H35.84C35.84 54.3267 33.6585 52.6097 31.9585 51.7139C30.3548 50.8689 28.195 50.2511 26.9113 49.8057L24.9447 55.4743ZM29.84 57.44C29.84 57.5023 29.8343 57.5447 29.8293 57.5699C29.8243 57.5948 29.8196 57.606 29.8191 57.607C29.8187 57.6079 29.8203 57.6043 29.8241 57.599C29.8279 57.5938 29.8299 57.5925 29.8267 57.5953C29.8225 57.599 29.7762 57.639 29.6503 57.6809C29.5218 57.7238 29.3105 57.768 29 57.768V63.768C30.7383 63.768 32.4591 63.2706 33.7893 62.1007C35.1553 60.8992 35.84 59.2191 35.84 57.44H29.84ZM29 57.768C28.512 57.768 28.032 57.3505 28.032 56.736H22.032C22.032 60.6015 25.136 63.768 29 63.768V57.768ZM25.032 53.736H15.88V59.736H25.032V53.736ZM78.594 29.6H81.594V26.6H78.594V29.6ZM69.186 29.6V26.6H66.186V29.6H69.186ZM57.666 29.6H60.666V26.6H57.666V29.6ZM48.322 29.6V26.6H45.322V29.6H48.322ZM45.322 55.072C45.322 60.2372 47.1783 64.6224 50.5241 67.697C53.8406 70.7445 58.3721 72.28 63.362 72.28V66.28C59.5839 66.28 56.5954 65.1275 54.5839 63.279C52.6017 61.4576 51.322 58.7388 51.322 55.072H45.322ZM63.362 72.28C68.1737 72.28 72.7286 70.8204 76.1252 67.8385C79.5692 64.815 81.594 60.4202 81.594 55.072H75.594C75.594 58.8118 74.2268 61.521 72.1668 63.3295C70.0594 65.1796 66.9983 66.28 63.362 66.28V72.28ZM81.594 55.072V29.6H75.594V55.072H81.594ZM78.594 26.6H69.186V32.6H78.594V26.6ZM66.186 29.6V53.664H72.186V29.6H66.186ZM66.186 53.664C66.186 55.8597 65.696 56.7003 65.4173 57.0011C65.1863 57.2505 64.6864 57.576 63.362 57.576V63.576C65.6216 63.576 68.0337 63.0055 69.8187 61.0789C71.556 59.2037 72.186 56.5883 72.186 53.664H66.186ZM63.362 57.576C62.2649 57.576 61.7565 57.2858 61.4826 56.9925C61.1753 56.6633 60.666 55.7972 60.666 53.664H54.666C54.666 56.6508 55.3727 59.2407 57.0974 61.0875C58.8555 62.9702 61.1951 63.576 63.362 63.576V57.576ZM60.666 53.664V29.6H54.666V53.664H60.666ZM57.666 26.6H48.322V32.6H57.666V26.6ZM45.322 29.6V55.072H51.322V29.6H45.322ZM84.7595 68H81.7595V71H84.7595V68ZM84.7595 29.6V26.6H81.7595V29.6H84.7595ZM94.1675 59.424H91.1675V62.424H94.1675V59.424ZM94.1675 38.112V35.112H91.1675V38.112H94.1675ZM84.7595 71H98.1355V65H84.7595V71ZM98.1355 71C112.119 71 121.232 60.5941 121.232 48.736H115.232C115.232 57.3579 108.728 65 98.1355 65V71ZM121.232 48.736C121.232 36.1235 110.977 26.6 98.1355 26.6V32.6C107.95 32.6 115.232 39.7165 115.232 48.736H121.232ZM98.1355 26.6H84.7595V32.6H98.1355V26.6ZM81.7595 29.6V68H87.7595V29.6H81.7595ZM97.1675 59.424V38.112H91.1675V59.424H97.1675ZM94.1675 41.112H97.9435V35.112H94.1675V41.112ZM97.9435 41.112C100.497 41.112 102.345 41.9982 103.561 43.2675C104.796 44.5566 105.568 46.4393 105.568 48.736H111.568C111.568 45.0806 110.323 41.6514 107.894 39.1165C105.446 36.5618 101.982 35.112 97.9435 35.112V41.112ZM105.568 48.736C105.568 51.2269 104.695 53.1049 103.413 54.3603C102.119 55.6265 100.24 56.424 97.9435 56.424V62.424C101.663 62.424 105.096 61.1095 107.61 58.6477C110.136 56.1751 111.568 52.7091 111.568 48.736H105.568ZM97.9435 56.424H94.1675V62.424H97.9435V56.424ZM124.443 56.736V53.736H121.443V56.736H124.443ZM140.507 44.96L141.366 42.0858L141.353 42.0819L140.507 44.96ZM141.723 40.864H138.723V43.864H141.723V40.864ZM150.555 40.864V43.864H153.778L153.547 40.6483L150.555 40.864ZM134.491 52.64L133.483 55.4659L133.495 55.4701L133.507 55.4743L134.491 52.64ZM133.595 56.736H136.595V53.736H133.595V56.736ZM121.443 56.736C121.443 60.8799 122.87 64.8028 125.718 67.7024C128.584 70.6197 132.671 72.28 137.562 72.28V66.28C134.07 66.28 131.597 65.1243 129.999 63.4976C128.383 61.8532 127.443 59.5041 127.443 56.736H121.443ZM137.562 72.28C146.342 72.28 153.555 65.412 153.555 56.864H147.555C147.555 61.884 143.247 66.28 137.562 66.28V72.28ZM153.555 56.864C153.555 53.2921 152.589 50.1013 150.394 47.4925C148.239 44.9313 145.135 43.2129 141.366 42.0858L139.647 47.8342C142.726 48.7551 144.646 49.9807 145.803 51.3555C146.92 52.6827 147.555 54.4199 147.555 56.864H153.555ZM141.353 42.0819C140.913 41.9526 140.475 41.8325 140.068 41.7213C139.651 41.6076 139.27 41.5043 138.902 41.3979C138.152 41.1811 137.592 40.99 137.171 40.7911C136.745 40.5897 136.641 40.4627 136.65 40.474C136.713 40.5513 136.723 40.6514 136.723 40.608H130.723C130.723 42.0046 131.172 43.2486 131.997 44.262C132.768 45.2093 133.748 45.8103 134.61 46.2169C136.178 46.9573 138.363 47.4566 139.66 47.8381L141.353 42.0819ZM136.723 40.608C136.723 40.3894 136.764 40.2846 136.781 40.2485C136.798 40.2116 136.822 40.1771 136.872 40.1368C136.99 40.0396 137.287 39.896 137.755 39.896V33.896C136.174 33.896 134.455 34.3604 133.069 35.4952C131.609 36.6918 130.723 38.4779 130.723 40.608H136.723ZM137.755 39.896C138.067 39.896 138.253 39.9487 138.348 39.9876C138.439 40.0249 138.486 40.0644 138.517 40.0978C138.576 40.1619 138.723 40.3786 138.723 40.864H144.723C144.723 39.1734 144.197 37.4061 142.928 36.0302C141.623 34.6149 139.79 33.896 137.755 33.896V39.896ZM141.723 43.864H150.555V37.864H141.723V43.864ZM153.547 40.6483C153.256 36.6166 151.945 32.749 149.201 29.8615C146.408 26.9214 142.434 25.32 137.499 25.32V31.32C141.075 31.32 143.373 32.4386 144.852 33.9945C146.38 35.603 147.341 38.0074 147.562 41.0797L153.547 40.6483ZM137.499 25.32C128.739 25.32 121.443 32.1692 121.443 40.736H127.443C127.443 35.7348 131.795 31.32 137.499 31.32V25.32ZM121.443 40.736C121.443 44.6349 122.528 47.804 124.828 50.3202C127.027 52.7258 130.092 54.2573 133.483 55.4659L135.498 49.8141C132.425 48.7187 130.466 47.5941 129.257 46.2718C128.149 45.06 127.443 43.4291 127.443 40.736H121.443ZM133.507 55.4743C135.36 56.1169 136.656 56.4591 137.724 57.0221C138.199 57.2724 138.379 57.4498 138.428 57.5106C138.443 57.5296 138.429 57.5171 138.415 57.4776C138.4 57.436 138.403 57.4156 138.403 57.44H144.403C144.403 54.3267 142.221 52.6097 140.521 51.7139C138.917 50.8689 136.757 50.2511 135.474 49.8057L133.507 55.4743ZM138.403 57.44C138.403 57.5023 138.397 57.5447 138.392 57.5699C138.387 57.5948 138.382 57.606 138.382 57.607C138.381 57.6079 138.383 57.6043 138.387 57.599C138.39 57.5938 138.392 57.5925 138.389 57.5953C138.385 57.599 138.339 57.639 138.213 57.6809C138.084 57.7238 137.873 57.768 137.562 57.768V63.768C139.301 63.768 141.022 63.2706 142.352 62.1007C143.718 60.8992 144.403 59.2191 144.403 57.44H138.403ZM137.562 57.768C137.075 57.768 136.595 57.3505 136.595 56.736H130.595C130.595 60.6015 133.698 63.768 137.562 63.768V57.768ZM133.595 53.736H124.443V59.736H133.595V53.736ZM203.469 29.6H206.469V26.6H203.469V29.6ZM194.061 29.6V26.6H191.061V29.6H194.061ZM182.541 29.6H185.541V26.6H182.541V29.6ZM173.197 29.6V26.6H170.197V29.6H173.197ZM170.197 55.072C170.197 60.2372 172.053 64.6224 175.399 67.697C178.716 70.7445 183.247 72.28 188.237 72.28V66.28C184.459 66.28 181.47 65.1275 179.459 63.279C177.477 61.4576 176.197 58.7388 176.197 55.072H170.197ZM188.237 72.28C193.049 72.28 197.604 70.8204 201 67.8385C204.444 64.815 206.469 60.4202 206.469 55.072H200.469C200.469 58.8118 199.102 61.521 197.042 63.3295C194.934 65.1796 191.873 66.28 188.237 66.28V72.28ZM206.469 55.072V29.6H200.469V55.072H206.469ZM203.469 26.6H194.061V32.6H203.469V26.6ZM191.061 29.6V53.664H197.061V29.6H191.061ZM191.061 53.664C191.061 55.8597 190.571 56.7003 190.292 57.0011C190.061 57.2505 189.561 57.576 188.237 57.576V63.576C190.497 63.576 192.909 63.0055 194.694 61.0789C196.431 59.2037 197.061 56.5883 197.061 53.664H191.061ZM188.237 57.576C187.14 57.576 186.632 57.2858 186.358 56.9925C186.05 56.6633 185.541 55.7972 185.541 53.664H179.541C179.541 56.6508 180.248 59.2407 181.972 61.0875C183.73 62.9702 186.07 63.576 188.237 63.576V57.576ZM185.541 53.664V29.6H179.541V53.664H185.541ZM182.541 26.6H173.197V32.6H182.541V26.6ZM170.197 29.6V55.072H176.197V29.6H170.197ZM209.635 68H206.635V71H209.635V68ZM218.979 68V71H221.979V68H218.979ZM218.979 54.176V51.176H215.979V54.176H218.979ZM209.635 29.6V26.6H206.635V29.6H209.635ZM218.979 46.112H215.979V49.112H218.979V46.112ZM218.979 37.6V34.6H215.979V37.6H218.979ZM209.635 71H218.979V65H209.635V71ZM221.979 68V54.176H215.979V68H221.979ZM218.979 57.176H225.699V51.176H218.979V57.176ZM225.699 57.176C234.387 57.176 241.179 50.7843 241.179 41.888H235.179C235.179 47.3277 231.218 51.176 225.699 51.176V57.176ZM241.179 41.888C241.179 33.934 235.389 26.6 225.699 26.6V32.6C231.752 32.6 235.179 36.914 235.179 41.888H241.179ZM225.699 26.6H209.635V32.6H225.699V26.6ZM206.635 29.6V68H212.635V29.6H206.635ZM221.979 46.112V37.6H215.979V46.112H221.979ZM218.979 40.6H224.803V34.6H218.979V40.6ZM224.803 40.6C225.036 40.6 225.158 40.6431 225.209 40.6665C225.26 40.6896 225.3 40.7191 225.34 40.7662C225.431 40.8735 225.579 41.1529 225.579 41.632H231.579C231.579 39.9991 231.086 38.2625 229.913 36.8818C228.687 35.4381 226.893 34.6 224.803 34.6V40.6ZM225.579 41.632C225.579 42.1944 225.402 42.6502 225.216 42.8939C225.133 43.0031 225.065 43.0492 225.027 43.0692C224.997 43.0851 224.935 43.112 224.803 43.112V49.112C227.053 49.112 228.843 48.0335 229.989 46.5301C231.083 45.0938 231.579 43.3096 231.579 41.632H225.579ZM224.803 43.112H218.979V49.112H224.803V43.112Z" fill="#005E95"/>
</g>
<circle cx="190.5" cy="17.5" r="2.5" fill="white" fill-opacity="0.5"/>
<circle cx="54.5" cy="19.5" r="2.5" fill="white" fill-opacity="0.5"/>
<circle cx="110.5" cy="87.5" r="2.5" fill="white" fill-opacity="0.5"/>
<defs>
<filter id="filter0_d_11_183" x="15.88" y="28.3198" width="227.298" height="47.96" filterUnits="userSpaceOnUse" color-interpolation-filters="sRGB">
<feFlood flood-opacity="0" result="BackgroundImageFix"/>
<feColorMatrix in="SourceAlpha" type="matrix" values="0 0 0 0 0 0 0 0 0 0 0 0 0 0 0 0 0 0 127 0" result="hardAlpha"/>
<feOffset dx="5" dy="7"/>
<feComposite in2="hardAlpha" operator="out"/>
<feColorMatrix type="matrix" values="0 0 0 0 0 0 0 0 0 0.243137 0 0 0 0 0.439216 0 0 0 1 0"/>
<feBlend mode="normal" in2="BackgroundImageFix" result="effect1_dropShadow_11_183"/>
<feBlend mode="normal" in="SourceGraphic" in2="effect1_dropShadow_11_183" result="shape"/>
</filter>
<linearGradient id="paint0_linear_11_183" x1="127.5" y1="15" x2="127.5" y2="87" gradientUnits="userSpaceOnUse">
<stop offset="0.166667" stop-color="white"/>
<stop offset="0.463542" stop-color="#FFD544"/>
<stop offset="0.838542" stop-color="#EA8034"/>
</linearGradient>
</defs>
</svg>
